<svg width="30" height="30" viewBox="0 0 30 30" fill="none" xmlns="http://www.w3.org/2000/svg">
<path d="M16.25 17.5H11.0225C10.4672 17.4988 9.91748 17.6115 9.40742 17.8311C8.89735 18.0507 8.43775 18.3726 8.05701 18.7769C7.67628 19.1812 7.38251 19.6593 7.19385 20.1816C7.0052 20.7039 6.92567 21.2594 6.96018 21.8136C6.9947 22.3679 7.14252 22.9092 7.39451 23.4041C7.64651 23.899 7.99732 24.3369 8.42526 24.6908C8.85321 25.0448 9.3492 25.3072 9.88257 25.4618C10.4159 25.6165 10.9754 25.6601 11.5263 25.59L12.2225 25.5025C13.3339 25.3631 14.3563 24.8229 15.0978 23.9834C15.8393 23.1439 16.249 22.0626 16.25 20.9425V9.23749C16.25 7.21374 16.25 6.20249 16.8425 5.50374C17.435 4.80499 18.4325 4.63749 20.4275 4.30374L23.375 3.81249C23.545 3.78499 23.63 3.76999 23.675 3.81999C23.72 3.86999 23.7 3.95249 23.6588 4.11999L22.54 8.59624C22.5213 8.67124 22.5113 8.70874 22.485 8.73374C22.4588 8.75874 22.4225 8.76624 22.3463 8.78124L16.25 9.99999" stroke="#FF8412" stroke-width="2.5"/>
</svg>
