<svg width="28" height="30" viewBox="0 0 28 30" fill="none" xmlns="http://www.w3.org/2000/svg">
<path fill-rule="evenodd" clip-rule="evenodd" d="M12.4981 3.75C12.3993 3.75049 12.3047 3.78996 12.2348 3.85983C12.165 3.9297 12.1255 4.02432 12.125 4.12312C12.125 7.51312 8.45375 9.63375 5.5175 7.93687C5.43162 7.88783 5.32984 7.87469 5.23433 7.90033C5.13881 7.92596 5.05728 7.98829 5.0075 8.07375L3.5075 10.6762C3.45888 10.7617 3.44579 10.8629 3.47104 10.9579C3.49629 11.053 3.55787 11.1343 3.6425 11.1844C6.57875 12.8812 6.57875 17.1187 3.6425 18.8156C3.55755 18.8654 3.49558 18.9466 3.46997 19.0416C3.44436 19.1367 3.45717 19.238 3.50563 19.3237L5.0075 21.9262C5.05728 22.0117 5.13881 22.074 5.23433 22.0997C5.32984 22.1253 5.43162 22.1122 5.5175 22.0631C8.45375 20.3662 12.125 22.4869 12.125 25.875C12.125 26.0812 12.2919 26.2481 12.4981 26.2481H15.5C15.7063 26.2481 15.8731 26.0812 15.8731 25.875C15.8731 22.485 19.5444 20.3644 22.4806 22.0612C22.5663 22.1097 22.6677 22.1225 22.7627 22.0969C22.8578 22.0713 22.939 22.0093 22.9888 21.9244L24.4925 19.3219C24.541 19.2362 24.5538 19.1348 24.5282 19.0398C24.5026 18.9447 24.4406 18.8635 24.3556 18.8137C21.9125 17.4019 21.5131 14.25 23.1088 12.2512C23.3431 11.9649 23.6809 11.7824 24.0489 11.7434C24.4169 11.7044 24.7854 11.8121 25.0746 12.043C25.3638 12.274 25.5502 12.6096 25.5936 12.9771C25.637 13.3446 25.5337 13.7144 25.3063 14.0062C25.1645 14.1862 25.0631 14.3945 25.0089 14.6171C24.9547 14.8397 24.949 15.0713 24.9923 15.2963C25.0355 15.5212 25.1266 15.7343 25.2594 15.9209C25.3921 16.1076 25.5635 16.2635 25.7619 16.3781C26.4928 16.8009 27.0261 17.4964 27.2447 18.3119C27.4634 19.1275 27.3495 19.9964 26.9281 20.7281L25.4244 23.3306C25.0016 24.0615 24.3062 24.5948 23.4906 24.8135C22.675 25.0321 21.8061 24.9183 21.0744 24.4969C20.8323 24.3575 20.5579 24.2843 20.2785 24.2844C19.9992 24.2846 19.7249 24.3581 19.4829 24.4977C19.241 24.6373 19.04 24.838 18.9001 25.0797C18.7601 25.3214 18.6862 25.5957 18.6856 25.875C18.6856 27.6337 17.2606 29.0606 15.5 29.0606H12.5C10.7413 29.0606 9.31438 27.6356 9.31438 25.875C9.31382 25.5957 9.23987 25.3214 9.09993 25.0797C8.96 24.838 8.759 24.6373 8.51706 24.4977C8.27513 24.3581 8.00076 24.2846 7.72146 24.2844C7.44215 24.2843 7.16771 24.3575 6.92563 24.4969C6.19394 24.9183 5.32496 25.0321 4.50941 24.8135C3.69385 24.5948 2.99838 24.0615 2.57563 23.3306L1.07188 20.7281C0.650484 19.9964 0.536616 19.1275 0.755268 18.3119C0.973921 17.4964 1.50723 16.8009 2.23813 16.3781C2.4803 16.2382 2.68139 16.037 2.8212 15.7948C2.96101 15.5526 3.03461 15.2778 3.03461 14.9981C3.03461 14.7184 2.96101 14.4437 2.8212 14.2014C2.68139 13.9592 2.4803 13.758 2.23813 13.6181C1.50723 13.1954 0.973921 12.4999 0.755268 11.6843C0.536616 10.8688 0.650484 9.99981 1.07188 9.26812L2.57375 6.66562C2.9965 5.93472 3.69198 5.40142 4.50753 5.18277C5.32308 4.96411 6.19207 5.07798 6.92375 5.49937C7.16555 5.63855 7.43965 5.7118 7.71865 5.71182C7.99764 5.71185 8.27175 5.63863 8.51357 5.4995C8.75539 5.36036 8.95646 5.16019 9.09666 4.91898C9.23686 4.67777 9.31129 4.40399 9.3125 4.125C9.3125 2.3625 10.7375 0.9375 12.4981 0.9375H16.4375C16.6222 0.9375 16.805 0.973874 16.9757 1.04454C17.1463 1.11522 17.3013 1.2188 17.4319 1.34938C17.5625 1.47996 17.666 1.63499 17.7367 1.8056C17.8074 1.97622 17.8438 2.15908 17.8438 2.34375C17.8438 2.52842 17.8074 2.71128 17.7367 2.8819C17.666 3.05251 17.5625 3.20754 17.4319 3.33812C17.3013 3.4687 17.1463 3.57228 16.9757 3.64296C16.805 3.71363 16.6222 3.75 16.4375 3.75H12.4981ZM13.9981 17.8125C14.744 17.8125 15.4594 17.5162 15.9869 16.9887C16.5143 16.4613 16.8106 15.7459 16.8106 15C16.8106 14.2541 16.5143 13.5387 15.9869 13.0113C15.4594 12.4838 14.744 12.1875 13.9981 12.1875C13.2522 12.1875 12.5368 12.4838 12.0094 13.0113C11.4819 13.5387 11.1856 14.2541 11.1856 15C11.1856 15.7459 11.4819 16.4613 12.0094 16.9887C12.5368 17.5162 13.2522 17.8125 13.9981 17.8125ZM14 20.625C15.4918 20.625 16.9226 20.0324 17.9775 18.9775C19.0324 17.9226 19.625 16.4918 19.625 15C19.625 13.5082 19.0324 12.0774 17.9775 11.0225C16.9226 9.96763 15.4918 9.375 14 9.375C12.5082 9.375 11.0774 9.96763 10.0225 11.0225C8.96763 12.0774 8.375 13.5082 8.375 15C8.375 16.4918 8.96763 17.9226 10.0225 18.9775C11.0774 20.0324 12.5082 20.625 14 20.625Z" fill="#FF8412"/>
<path fill-rule="evenodd" clip-rule="evenodd" d="M22.4375 10.3125C23.4321 10.3125 24.3859 9.91741 25.0891 9.21415C25.7924 8.51089 26.1875 7.55706 26.1875 6.5625C26.1875 5.56794 25.7924 4.61411 25.0891 3.91085C24.3859 3.20759 23.4321 2.8125 22.4375 2.8125C21.4429 2.8125 20.4891 3.20759 19.7859 3.91085C19.0826 4.61411 18.6875 5.56794 18.6875 6.5625C18.6875 7.55706 19.0826 8.51089 19.7859 9.21415C20.4891 9.91741 21.4429 10.3125 22.4375 10.3125Z" fill="#FF8412"/>
</svg>
