<svg width="22" height="21" viewBox="0 0 22 21" fill="none" xmlns="http://www.w3.org/2000/svg">
<path d="M20.352 7.28078L14.1536 6.33745L11.3827 0.455058C11.307 0.294001 11.1825 0.163622 11.0287 0.0843724C10.643 -0.115031 10.1743 0.0511385 9.9814 0.455058L7.21055 6.33745L1.01213 7.28078C0.841245 7.30635 0.685003 7.39071 0.56538 7.51853C0.420763 7.67419 0.341072 7.8836 0.343819 8.10075C0.346565 8.31789 0.431524 8.52502 0.580028 8.67661L5.06466 13.2552L4.00515 19.7205C3.9803 19.8709 3.99619 20.0256 4.05102 20.167C4.10585 20.3084 4.19742 20.4309 4.31536 20.5206C4.43329 20.6103 4.57286 20.6636 4.71824 20.6744C4.86363 20.6853 5.00901 20.6533 5.1379 20.582L10.682 17.5296L16.2262 20.582C16.3776 20.6664 16.5533 20.6945 16.7218 20.6638C17.1466 20.5871 17.4322 20.1653 17.359 19.7205L16.2994 13.2552L20.7841 8.67661C20.9061 8.55134 20.9867 8.38773 21.0111 8.20878C21.077 7.7614 20.7792 7.34725 20.352 7.28078Z" fill="white"/>
</svg>
