<svg width="41" height="50" viewBox="0 0 41 50" fill="none" xmlns="http://www.w3.org/2000/svg">
<path d="M33.7769 26.517C33.7149 20.285 38.8589 17.296 39.0889 17.145C36.1979 12.918 31.6939 12.338 30.0909 12.272C26.2609 11.883 22.6139 14.528 20.6709 14.528C18.7319 14.528 15.7299 12.329 12.5539 12.385C8.37589 12.447 4.52489 14.815 2.37489 18.555C-1.96411 26.082 1.26489 37.237 5.49289 43.346C7.55989 46.332 10.0249 49.692 13.2589 49.569C16.3759 49.446 17.5519 47.553 21.3199 47.553C25.0879 47.553 26.1459 49.569 29.4429 49.506C32.7949 49.445 34.9199 46.463 36.9699 43.465C39.3429 39.996 40.3199 36.637 40.3779 36.467C40.3049 36.433 33.8439 33.958 33.7769 26.517Z" fill="white"/>
<path d="M27.582 8.22902C29.297 6.14702 30.459 3.25402 30.143 0.374023C27.668 0.474023 24.672 2.01902 22.895 4.09902C21.303 5.94502 19.911 8.88402 20.284 11.712C23.045 11.926 25.861 10.307 27.582 8.22902Z" fill="white"/>
</svg>
